<?xml version="1.0" encoding="UTF-8"?>
<svg id="Izolovaný_režim" data-name="Izolovaný režim" xmlns="http://www.w3.org/2000/svg" viewBox="0 0 77.41 79.9">
  <defs>
    <style>
      .cls-1 {
        fill: #97d2d8;
        stroke-width: 0px;
      }
    </style>
  </defs>
  <path class="cls-1" d="M76.92,48.13c1.08,5.68,1.99,28.85-15.27,30.71-15.43,1.66-44.23,2-52.06-3.58C1.77,69.67-.76,62.36.19,49.84c.51-6.7.76-12.81,6.79-14.13,4.07-.89,14.26,2.83,28.07,2.87,12.23.04,24.81-3.11,29.96-2.72,10.96.83,11.31,9.08,11.91,12.26Z"/>
  <path class="cls-1" d="M58.5,39.23c2.36-4.31,2.75-13.89,2.45-16.89-.27-7.88-11.01-15.53-20.19-14.76-16.62.08-32.48,3.69-26,28.78,1.68,6.48.91,9.29-2.06,3.66C3.99,22.31,9.22,7.43,26.18,1.9c12.64-3.24,30.07-2.58,36.61,3.77,6.54,6.35,6.13,13.76,3.71,26.33-2.25,11.7-8.88,8.75-8.01,7.22Z"/>
</svg>